#N canvas 500 221 1363 621 12;
#X obj 23 23 cnv 19 600 400 empty empty RECEIVE 400 12 0 12 #cdeaf3 #404040 0;
#X listbox 44 175 30 0 0 0 - - - 0;
#X obj 44 219 list trim;
#X obj 44 137 oscparse, f 10;
#X obj 215 392 print;
#X obj 44 395 print;
#X obj 44 339 route temperature_2m;
#X obj 216 337 route wind_speed_10m;
#X obj 387 394 print;
#X obj 44 243 route weather;
#X msg 44 363 Mi temperatura: \$1;
#X msg 215 364 Mi velocidad: \$1;
#X obj 387 336 route relative_humidity_2m;
#X msg 387 360 Mi humedad: \$1;
#X obj 661 23 cnv 19 600 400 empty empty SEND 400 12 0 12 #efd5d1 #404040 0;
#X msg 743 118 disconnect;
#X obj 727 284 tgl 19 0 empty empty empty 0 -10 0 12 #dfdfdf #000000 #000000 0 1;
#X msg 727 84 connect localhost 5006;
#X obj 727 254 netsend -u -b;
#X obj 867 199 oscformat ciudad;
#X msg 930 102 list Buenos Aires;
#X obj 44 98 netreceive -u -b;
#X msg 87 53 listen 5005;
#X msg 945 132 list New York;
#X msg 968 163 list Paris;
#X connect 1 0 2 0;
#X connect 2 0 9 0;
#X connect 3 0 1 0;
#X connect 6 0 10 0;
#X connect 7 0 11 0;
#X connect 9 0 6 0;
#X connect 9 0 7 0;
#X connect 9 0 12 0;
#X connect 10 0 5 0;
#X connect 11 0 4 0;
#X connect 12 0 13 0;
#X connect 13 0 8 0;
#X connect 15 0 18 0;
#X connect 17 0 18 0;
#X connect 18 0 16 0;
#X connect 19 0 18 0;
#X connect 20 0 19 0;
#X connect 21 0 3 0;
#X connect 22 0 21 0;
#X connect 23 0 19 0;
#X connect 24 0 19 0;
