#N canvas 336 170 692 768 12;
#X listbox 249 218 20 0 0 0 - - - 0;
#X msg 249 102 listen 3000;
#X obj 249 134 netreceive -u -b 3000;
#X obj 249 255 list trim;
#X obj 249 173 oscparse, f 10;
#X obj 383 331 route duracion;
#X obj 383 355 print;
#X obj 249 330 route origen;
#X obj 249 354 print;
#X connect 0 0 3 0;
#X connect 1 0 2 0;
#X connect 2 0 4 0;
#X connect 3 0 5 0;
#X connect 3 0 7 0;
#X connect 4 0 0 0;
#X connect 5 0 6 0;
#X connect 7 0 8 0;
