#N canvas 890 112 692 768 12;
#X listbox 101 212 30 0 0 0 - - - 0;
#X obj 101 249 list trim;
#X obj 101 167 oscparse, f 10;
#X obj 277 454 print;
#X obj 106 457 print;
#X msg 101 96 listen 5005;
#X obj 106 401 route temperature_2m;
#X obj 278 399 route wind_speed_10m;
#X obj 449 456 print;
#X obj 101 273 route weather;
#X msg 106 425 Mi temperatura: \$1;
#X msg 277 426 Mi velocidad: \$1;
#X obj 449 398 route relative_humidity_2m;
#X msg 449 422 Mi humedad: \$1;
#X obj 101 128 netreceive -u -b -f;
#X obj 289 163 print;
#X connect 0 0 1 0;
#X connect 1 0 9 0;
#X connect 2 0 0 0;
#X connect 5 0 14 0;
#X connect 6 0 10 0;
#X connect 7 0 11 0;
#X connect 9 0 6 0;
#X connect 9 0 7 0;
#X connect 9 0 12 0;
#X connect 10 0 4 0;
#X connect 11 0 3 0;
#X connect 12 0 13 0;
#X connect 13 0 8 0;
#X connect 14 0 2 0;
#X connect 14 1 15 0;
